<svg xmlns="http://www.w3.org/2000/svg" width="1180" height="320" viewBox="0 0 1180 320" role="img" aria-labelledby="title desc">
  <title id="title">NanoChronometer logo</title>
  <desc id="desc">NanoChronometer vector logo with the original stopwatch isotipo and transparent typography-only wordmark, no text background.</desc>
  <defs>
    <linearGradient id="green" x1="0" y1="0" x2="1" y2="1">
      <stop offset="0" stop-color="#b6ffb6"/>
      <stop offset="0.35" stop-color="#00ff41"/>
      <stop offset="1" stop-color="#00a82f"/>
    </linearGradient>
    <linearGradient id="metal" x1="0" y1="0" x2="1" y2="1">
      <stop offset="0" stop-color="#d7ffdf"/>
      <stop offset="0.42" stop-color="#6aff88"/>
      <stop offset="1" stop-color="#0b5f24"/>
    </linearGradient>
    <filter id="glow" x="-40%" y="-40%" width="180%" height="180%">
      <feGaussianBlur stdDeviation="4" result="blur"/>
      <feColorMatrix in="blur" type="matrix" values="0 0 0 0 0  0 1 0 0 1  0 0 0 0 0.255  0 0 0 0.8 0" result="greenGlow"/>
      <feMerge>
        <feMergeNode in="greenGlow"/>
        <feMergeNode in="SourceGraphic"/>
      </feMerge>
    </filter>
    <filter id="softShadow" x="-20%" y="-20%" width="140%" height="140%">
      <feDropShadow dx="0" dy="10" stdDeviation="14" flood-color="#000000" flood-opacity="0.45"/>
    </filter>
  </defs>

  <!-- Transparent canvas: no background behind the typography. -->

  <g id="mark" transform="translate(70 50)" filter="url(#softShadow)">
    <circle cx="130" cy="145" r="111" fill="#071008" stroke="#073d18" stroke-width="9"/>
    <circle cx="130" cy="145" r="96" fill="#081b0e" stroke="url(#green)" stroke-width="5"/>
    <circle cx="130" cy="145" r="77" fill="#061008" stroke="#1d6f2d" stroke-width="1.5" opacity="0.92"/>

    <path d="M102 27 h56 a13 13 0 0 1 13 13 v16 h-82 v-16 a13 13 0 0 1 13-13z" fill="url(#metal)" stroke="#b6ffb6" stroke-width="2"/>
    <rect x="111" y="7" width="38" height="28" rx="8" fill="#071008" stroke="url(#green)" stroke-width="4"/>
    <path d="M208 61 l31 -28 l20 22 l-33 30z" fill="#081b0e" stroke="url(#green)" stroke-width="4"/>
    <path d="M33 101 l-20 -12 l13 -23 l23 13z" fill="#081b0e" stroke="#1dff5a" stroke-width="3" opacity="0.9"/>

    <g stroke="#9effad" stroke-linecap="round" opacity="0.9">
      <path d="M130 54 v17" stroke-width="4"/>
      <path d="M130 219 v17" stroke-width="4"/>
      <path d="M39 145 h17" stroke-width="4"/>
      <path d="M204 145 h17" stroke-width="4"/>
      <path d="M84.5 66.2 l7.8 13.5" stroke-width="3"/>
      <path d="M175.5 223.8 l-7.8 -13.5" stroke-width="3"/>
      <path d="M208.8 99.5 l-13.5 7.8" stroke-width="3"/>
      <path d="M51.2 190.5 l13.5 -7.8" stroke-width="3"/>
    </g>

    <g filter="url(#glow)">
      <path d="M76 189 V93 h24 l58 60 V93 h26 v96 h-24 l-58 -60 v60z" fill="none" stroke="url(#green)" stroke-width="11" stroke-linejoin="round"/>
      <path d="M77 189 V93 h23 l58 60 V93 h25 v96 h-23 l-58 -60 v60z" fill="#071008" opacity="0.7"/>
      <path d="M76 189 V93 h24 l58 60 V93 h26 v96 h-24 l-58 -60 v60z" fill="none" stroke="#b6ffb6" stroke-width="2" stroke-linejoin="round"/>
    </g>

    <g stroke="#00ff41" stroke-width="4" stroke-linecap="round" stroke-linejoin="round" filter="url(#glow)">
      <path d="M130 145 L172 103"/>
      <path d="M130 145 L104 164" opacity="0.55"/>
      <circle cx="130" cy="145" r="7" fill="#b6ffb6" stroke="#00ff41"/>
    </g>

    <g fill="#00ff41" opacity="0.94" filter="url(#glow)">
      <circle cx="64" cy="117" r="4"/>
      <circle cx="197" cy="174" r="4"/>
      <circle cx="96" cy="214" r="3"/>
      <path d="M64 117 H36"/>
      <path d="M197 174 H229"/>
      <path d="M96 214 v24"/>
    </g>
  </g>

  <g id="wordmark" transform="translate(360 112)">
    <text x="0" y="74" font-family="Inter, Segoe UI, Arial, sans-serif" font-size="76" font-weight="850" letter-spacing="-2.2">
      <tspan fill="#00ff41">Nano</tspan><tspan fill="#0b0f0c">Chronometer</tspan>
    </text>
    <text x="4" y="122" font-family="Inter, Segoe UI, Arial, sans-serif" font-size="22" font-weight="600" letter-spacing="4.2" fill="#2d4734">
      OPEN SOURCE HIGH PRECISION TIMER
    </text>
  </g>
</svg>
